REM DIRINDEX 1\3,1\4,1\5,1\6,1\2\7,1\2\8,1\2\9,1\10
REM DIRNAME folder01,folder02,folder03,folder04,folder05,folder06,folder07,folder08,folder09,folder10
TITLE ""
FILE "1-13 Level 1-112-121.mp3" MP3
  TRACK 01 AUDIO
    TITLE "0:"
    INDEX 01 00:00:00
  TRACK 02 AUDIO
    TITLE "7:cjc056_0360"
    INDEX 01 00:00:05
  TRACK 03 AUDIO
    TITLE "0:"
    INDEX 01 00:01:17
  TRACK 04 AUDIO
    TITLE "8:cjc056_0361"
    INDEX 01 00:01:26
  TRACK 05 AUDIO
    TITLE "0:"
    INDEX 01 00:03:02
  TRACK 06 AUDIO
    TITLE "9:cjc056_0362"
    INDEX 01 00:03:15
  TRACK 07 AUDIO
    TITLE "0:"
    INDEX 01 00:04:62
  TRACK 08 AUDIO
    TITLE "7:cjc056_0363"
    INDEX 01 00:05:40
  TRACK 09 AUDIO
    TITLE "0:"
    INDEX 01 00:06:49
  TRACK 10 AUDIO
    TITLE "8:cjc056_0364"
    INDEX 01 00:06:61
  TRACK 11 AUDIO
    TITLE "0:"
    INDEX 01 00:08:23
  TRACK 12 AUDIO
    TITLE "9:cjc056_0365"
    INDEX 01 00:08:34
  TRACK 13 AUDIO
    TITLE "0:"
    INDEX 01 00:10:04
  TRACK 14 AUDIO
    TITLE "7:cjc056_0366"
    INDEX 01 00:10:55
  TRACK 15 AUDIO
    TITLE "0:"
    INDEX 01 00:12:07
  TRACK 16 AUDIO
    TITLE "8:cjc056_0367"
    INDEX 01 00:12:22
  TRACK 17 AUDIO
    TITLE "0:"
    INDEX 01 00:13:39
  TRACK 18 AUDIO
    TITLE "9:cjc056_0368"
    INDEX 01 00:13:51
  TRACK 19 AUDIO
    TITLE "0:"
    INDEX 01 00:15:36
  TRACK 20 AUDIO
    TITLE "7:cjc056_0369"
    INDEX 01 00:16:12
  TRACK 21 AUDIO
    TITLE "0:"
    INDEX 01 00:17:14
  TRACK 22 AUDIO
    TITLE "8:cjc056_0370"
    INDEX 01 00:17:27
  TRACK 23 AUDIO
    TITLE "0:"
    INDEX 01 00:18:21
  TRACK 24 AUDIO
    TITLE "9:cjc056_0371"
    INDEX 01 00:18:35
  TRACK 25 AUDIO
    TITLE "0:"
    INDEX 01 00:20:22
  TRACK 26 AUDIO
    TITLE "7:cjc056_0372"
    INDEX 01 00:21:00
  TRACK 27 AUDIO
    TITLE "0:"
    INDEX 01 00:22:03
  TRACK 28 AUDIO
    TITLE "8:cjc056_0373"
    INDEX 01 00:22:17
  TRACK 29 AUDIO
    TITLE "0:"
    INDEX 01 00:23:26
  TRACK 30 AUDIO
    TITLE "9:cjc056_0374"
    INDEX 01 00:23:40
  TRACK 31 AUDIO
    TITLE "0:"
    INDEX 01 00:25:29
  TRACK 32 AUDIO
    TITLE "7:cjc056_0375"
    INDEX 01 00:26:05
  TRACK 33 AUDIO
    TITLE "0:"
    INDEX 01 00:27:18
  TRACK 34 AUDIO
    TITLE "8:cjc056_0376"
    INDEX 01 00:27:32
  TRACK 35 AUDIO
    TITLE "0:"
    INDEX 01 00:28:47
  TRACK 36 AUDIO
    TITLE "9:cjc056_0377"
    INDEX 01 00:28:59
  TRACK 37 AUDIO
    TITLE "0:"
    INDEX 01 00:30:44
  TRACK 38 AUDIO
    TITLE "7:cjc056_0378"
    INDEX 01 00:31:22
  TRACK 39 AUDIO
    TITLE "0:"
    INDEX 01 00:32:19
  TRACK 40 AUDIO
    TITLE "8:cjc056_0379"
    INDEX 01 00:32:31
  TRACK 41 AUDIO
    TITLE "0:"
    INDEX 01 00:33:56
  TRACK 42 AUDIO
    TITLE "9:cjc056_0380"
    INDEX 01 00:33:69
  TRACK 43 AUDIO
    TITLE "0:"
    INDEX 01 00:35:23
  TRACK 44 AUDIO
    TITLE "7:cjc056_0381"
    INDEX 01 00:35:74
  TRACK 45 AUDIO
    TITLE "0:"
    INDEX 01 00:37:08
  TRACK 46 AUDIO
    TITLE "8:cjc056_0382"
    INDEX 01 00:37:24
  TRACK 47 AUDIO
    TITLE "0:"
    INDEX 01 00:38:73
  TRACK 48 AUDIO
    TITLE "9:cjc056_0383"
    INDEX 01 00:39:09
  TRACK 49 AUDIO
    TITLE "0:"
    INDEX 01 00:40:64
  TRACK 50 AUDIO
    TITLE "7:cjc056_0384"
    INDEX 01 00:41:42
  TRACK 51 AUDIO
    TITLE "0:"
    INDEX 01 00:42:51
  TRACK 52 AUDIO
    TITLE "8:cjc056_0385"
    INDEX 01 00:42:59
  TRACK 53 AUDIO
    TITLE "0:"
    INDEX 01 00:44:03
  TRACK 54 AUDIO
    TITLE "9:cjc056_0386"
    INDEX 01 00:44:14
  TRACK 55 AUDIO
    TITLE "0:"
    INDEX 01 00:45:51
  TRACK 56 AUDIO
    TITLE "7:cjc056_0387"
    INDEX 01 00:46:27
  TRACK 57 AUDIO
    TITLE "0:"
    INDEX 01 00:47:30
  TRACK 58 AUDIO
    TITLE "8:cjc056_0388"
    INDEX 01 00:47:42
  TRACK 59 AUDIO
    TITLE "0:"
    INDEX 01 00:49:53
  TRACK 60 AUDIO
    TITLE "9:cjc056_0389"
    INDEX 01 00:49:69
  TRACK 61 AUDIO
    TITLE "0:"
    INDEX 01 00:51:46
